<svg width="30" height="30" viewBox="0 0 30 30" fill="none" xmlns="http://www.w3.org/2000/svg">
<mask id="mask0_222_8" style="mask-type:alpha" maskUnits="userSpaceOnUse" x="0" y="0" width="30" height="31">
<path d="M15 10.5C14.7033 10.5 14.4133 10.588 14.1666 10.7528C13.92 10.9176 13.7277 11.1519 13.6142 11.426C13.5006 11.7001 13.4709 12.0017 13.5288 12.2926C13.5867 12.5836 13.7296 12.8509 13.9393 13.0607C14.1491 13.2704 14.4164 13.4133 14.7074 13.4712C14.9983 13.5291 15.2999 13.4993 15.574 13.3858C15.8481 13.2723 16.0824 13.08 16.2472 12.8334C16.412 12.5867 16.5 12.2967 16.5 12C16.5 11.6022 16.342 11.2206 16.0607 10.9393C15.7794 10.658 15.3978 10.5 15 10.5ZM25.5 0H4.5C3.30653 0 2.16193 0.474106 1.31802 1.31802C0.474106 2.16193 0 3.30653 0 4.5V19.5C0 20.6935 0.474106 21.8381 1.31802 22.682C2.16193 23.5259 3.30653 24 4.5 24H21.885L27.435 29.565C27.5752 29.704 27.7414 29.814 27.9241 29.8887C28.1069 29.9633 28.3026 30.0011 28.5 30C28.6968 30.0051 28.892 29.964 29.07 29.88C29.3439 29.7675 29.5784 29.5764 29.7439 29.3308C29.9094 29.0852 29.9985 28.7961 30 28.5V4.5C30 3.30653 29.5259 2.16193 28.682 1.31802C27.8381 0.474106 26.6935 0 25.5 0ZM27 24.885L23.565 21.435C23.4248 21.296 23.2586 21.186 23.0759 21.1113C22.8931 21.0367 22.6974 20.9989 22.5 21H4.5C4.10218 21 3.72064 20.842 3.43934 20.5607C3.15804 20.2794 3 19.8978 3 19.5V4.5C3 4.10217 3.15804 3.72064 3.43934 3.43934C3.72064 3.15804 4.10218 3 4.5 3H25.5C25.8978 3 26.2794 3.15804 26.5607 3.43934C26.842 3.72064 27 4.10217 27 4.5V24.885ZM9 10.5C8.70333 10.5 8.41332 10.588 8.16664 10.7528C7.91997 10.9176 7.72771 11.1519 7.61418 11.426C7.50065 11.7001 7.47094 12.0017 7.52882 12.2926C7.5867 12.5836 7.72956 12.8509 7.93934 13.0607C8.14912 13.2704 8.41639 13.4133 8.70736 13.4712C8.99834 13.5291 9.29994 13.4993 9.57403 13.3858C9.84811 13.2723 10.0824 13.08 10.2472 12.8334C10.412 12.5867 10.5 12.2967 10.5 12C10.5 11.6022 10.342 11.2206 10.0607 10.9393C9.77936 10.658 9.39782 10.5 9 10.5V10.5ZM21 10.5C20.7033 10.5 20.4133 10.588 20.1666 10.7528C19.92 10.9176 19.7277 11.1519 19.6142 11.426C19.5006 11.7001 19.4709 12.0017 19.5288 12.2926C19.5867 12.5836 19.7296 12.8509 19.9393 13.0607C20.1491 13.2704 20.4164 13.4133 20.7074 13.4712C20.9983 13.5291 21.2999 13.4993 21.574 13.3858C21.8481 13.2723 22.0824 13.08 22.2472 12.8334C22.412 12.5867 22.5 12.2967 22.5 12C22.5 11.6022 22.342 11.2206 22.0607 10.9393C21.7794 10.658 21.3978 10.5 21 10.5Z" fill="black"/>
</mask>
<g mask="url(#mask0_222_8)">
<rect width="30" height="30" fill="#1C405D"/>
</g>
</svg>
