<svg width="31" height="31" viewBox="0 0 31 31" fill="none" xmlns="http://www.w3.org/2000/svg">
<circle cx="15.1227" cy="15.4049" r="14.9977" fill="#FFF6D6"/>
<path d="M10.4904 12.2367V20.6603C10.4904 21.1236 10.8695 21.5027 11.3328 21.5027H18.9141C19.3774 21.5027 19.7564 21.1236 19.7564 20.6603V12.2367H10.4904ZM13.0175 19.818H12.1752V13.9214H13.0175V19.818ZM14.7022 19.818H13.8599V13.9214H14.7022V19.818ZM16.387 19.818H15.5446V13.9214H16.387V19.818ZM18.0717 19.818H17.2293V13.9214H18.0717V19.818ZM19.967 9.70963H17.2293V8.65667C17.2287 8.48932 17.1619 8.32902 17.0436 8.21068C16.9252 8.09234 16.7649 8.02557 16.5976 8.0249H13.6493C13.4819 8.02557 13.3216 8.09234 13.2033 8.21068C13.085 8.32902 13.0182 8.48932 13.0175 8.65667V9.70963H10.2798C10.1124 9.71007 9.95199 9.77678 9.8336 9.89516C9.71522 10.0135 9.64852 10.174 9.64807 10.3414V11.3944H20.5988V10.3414C20.5983 10.174 20.5316 10.0135 20.4132 9.89516C20.2949 9.77678 20.1344 9.71007 19.967 9.70963ZM16.387 9.70963H13.8599V8.87822H16.387V9.70963Z" fill="#FF6B00"/>
</svg>
