<svg width="31" height="31" viewBox="0 0 31 31" fill="none" xmlns="http://www.w3.org/2000/svg">
<circle cx="15.5" cy="12.5" r="1.5" fill="#1C405D"/>
<circle cx="8.5" cy="12.5" r="1.5" fill="#1C405D"/>
<circle cx="22.5" cy="12.5" r="1.5" fill="#1C405D"/>
<path fill-rule="evenodd" clip-rule="evenodd" d="M4 2H26C27.1046 2 28 2.89543 28 4V22H30V4C30 1.79086 28.2091 0 26 0H4C1.79086 0 0 1.79086 0 4V21.7143C0 23.9234 1.79086 25.7143 4 25.7143H24V23.7143H4C2.89543 23.7143 2 22.8189 2 21.7143V4C2 2.89543 2.89543 2 4 2Z" fill="#1C405D"/>
<rect x="30" y="20" width="10" height="2" rx="1" transform="rotate(89.7084 30 20)" fill="#1C405D"/>
<path d="M23.4313 23.8791C23.7687 23.6542 24.2139 23.6775 24.5259 23.9366L29.3861 27.9714C29.8019 28.3166 29.8643 28.9314 29.5263 29.3531V29.3531C29.175 29.7913 28.53 29.8502 28.1053 29.4828L23.5008 25.5L23.2917 25.2911C22.8822 24.8818 22.9496 24.2003 23.4313 23.8791V23.8791Z" fill="#1C405D"/>
</svg>
