<svg width="20" height="26" viewBox="0 0 20 26" fill="none" xmlns="http://www.w3.org/2000/svg">
<path d="M16.289 8.78323L16.2884 8.7827L16.0467 8.56091L15.9388 8.87029C15.9387 8.87055 15.9387 8.87082 15.9386 8.87108C15.668 9.65239 15.1834 10.4156 14.5353 11.1374L14.5305 11.1428L14.5255 11.1481C14.3217 11.3665 14.0786 11.4264 13.9287 11.4401C13.7501 11.4563 13.475 11.4233 13.2381 11.2091C13.0172 11.0129 12.9184 10.735 12.933 10.4726L12.9332 10.4682C13.0272 8.93967 12.5725 7.15044 11.4944 5.12838L11.4938 5.12724C10.6293 3.49904 9.43729 2.24286 7.9545 1.36774C7.95435 1.36765 7.9542 1.36757 7.95406 1.36748L7.61438 1.16762L7.63273 1.5679L7.63273 1.56797C7.67872 2.57355 7.56459 3.50298 7.2651 4.30496C6.92335 5.22135 6.43267 6.07178 5.80689 6.83387L5.80657 6.83426C5.37154 7.36332 4.87848 7.84185 4.33664 8.26087L4.33493 8.26219C3.22707 9.11382 2.32615 10.205 1.69958 11.454C1.07578 12.7126 0.750824 14.0981 0.75 15.5028L16.289 8.78323ZM16.289 8.78323C17.2147 9.63081 17.9555 10.6603 18.4652 11.8073M16.289 8.78323L18.4652 11.8073M19.1505 11.5028L18.4654 11.8078C18.9877 12.9811 19.25 14.2237 19.25 15.5056L19.25 15.5072C19.2525 16.7333 19.0053 17.9471 18.5234 19.0745L18.5232 19.075C18.0586 20.1643 17.3923 21.1455 16.5411 21.9862L16.5392 21.9881C15.6965 22.8265 14.6985 23.4928 13.601 23.9496L13.6005 23.9498C12.4596 24.4256 11.2509 24.6676 9.99999 24.6676C8.74909 24.6676 7.54097 24.4256 6.40083 23.9475L6.39984 23.9471C5.29997 23.4877 4.31237 22.8263 3.45922 21.9837C2.61653 21.1503 1.94329 20.1615 1.4767 19.0719C0.994113 17.9415 0.750053 16.7436 0.75 15.5032L19.1505 11.5028ZM19.1505 11.5028L18.4652 11.8073M19.1505 11.5028L18.4652 11.8073M7.16189 0.0312747L7.16192 0.0312163L7.16189 0.0312747Z" stroke="black" stroke-width="1.5"/>
</svg>
