<svg width="26" height="19" viewBox="0 0 26 19" fill="none" xmlns="http://www.w3.org/2000/svg">
<path d="M17.5378 18.7069C17.8479 18.7069 18.1452 18.5838 18.3645 18.3645C18.5838 18.1452 18.7069 17.8478 18.7069 17.5378V12.6272L24.8019 16.8947C24.8895 16.9561 24.9924 16.9923 25.0992 16.9993C25.206 17.0064 25.3126 16.9839 25.4076 16.9345C25.5025 16.885 25.582 16.8105 25.6375 16.7189C25.6929 16.6274 25.7222 16.5224 25.7221 16.4153V2.29159C25.7222 2.18456 25.6929 2.07956 25.6375 1.98802C25.582 1.89648 25.5025 1.82192 25.4076 1.77247C25.3126 1.72302 25.206 1.70057 25.0992 1.70759C24.9924 1.7146 24.8895 1.75079 24.8019 1.81223L18.7069 6.07975V1.16917C18.7069 0.859088 18.5838 0.5617 18.3645 0.342436C18.1452 0.123171 17.8479 -9.53674e-06 17.5378 -9.53674e-06H1.16918C0.859097 -9.53674e-06 0.561711 0.123171 0.342446 0.342436C0.123182 0.5617 0 0.859088 0 1.16917V17.5378C0 17.8478 0.123182 18.1452 0.342446 18.3645C0.561711 18.5838 0.859097 18.7069 1.16918 18.7069H17.5378ZM16.3686 16.3686H2.33837V2.33836H16.3686V16.3686ZM7.48278 13.0609C7.57176 13.0612 7.65896 13.036 7.73415 12.9885L12.826 9.74748C12.8921 9.70519 12.9465 9.64693 12.9842 9.57807C13.0219 9.50921 13.0417 9.43197 13.0417 9.35347C13.0417 9.27496 13.0219 9.19772 12.9842 9.12886C12.9465 9.06 12.8921 9.00174 12.826 8.95945L7.73415 5.7173C7.66323 5.6721 7.58144 5.64685 7.49737 5.64422C7.41331 5.64159 7.3301 5.66169 7.25649 5.70238C7.18289 5.74307 7.12162 5.80285 7.07914 5.87544C7.03666 5.94803 7.01454 6.03072 7.01511 6.11482V12.5921C7.01511 12.7161 7.06438 12.8351 7.15208 12.9228C7.23979 13.0105 7.35874 13.0598 7.48278 13.0598V13.0609ZM23.3837 13.0481L18.7069 9.77437V8.9349L23.3837 5.66118V13.0481Z" fill="black"/>
</svg>
