<svg width="23" height="26" viewBox="0 0 23 26" fill="none" xmlns="http://www.w3.org/2000/svg">
<path d="M2.51158 25.1158H20.0926C21.4778 25.1158 22.6042 23.9894 22.6042 22.6042V8.79053C22.6042 8.45748 22.4719 8.13806 22.2364 7.90256C22.0009 7.66705 21.6815 7.53474 21.3484 7.53474H17.5811V6.27895C17.5811 2.81674 14.7643 0 11.3021 0C7.8399 0 5.02316 2.81674 5.02316 6.27895V7.53474H1.25579C0.922734 7.53474 0.603319 7.66705 0.367812 7.90256C0.132306 8.13806 0 8.45748 0 8.79053V22.6042C0 23.9894 1.12644 25.1158 2.51158 25.1158ZM7.53474 6.27895C7.53474 4.20187 9.22504 2.51158 11.3021 2.51158C13.3792 2.51158 15.0695 4.20187 15.0695 6.27895V7.53474H7.53474V6.27895ZM2.51158 10.0463H5.02316V12.5579H7.53474V10.0463H15.0695V12.5579H17.5811V10.0463H20.0926L20.0952 22.6042H2.51158V10.0463Z" fill="black"/>
</svg>
