<svg width="28" height="26" viewBox="0 0 28 26" fill="none" xmlns="http://www.w3.org/2000/svg">
<path d="M5.06403 0.596771C5.22411 0.409615 5.42284 0.259358 5.64654 0.156339C5.87023 0.0533199 6.1136 -1.61992e-05 6.35988 3.69058e-09H20.9211C21.1674 -1.61992e-05 21.4107 0.0533199 21.6344 0.156339C21.8581 0.259358 22.0569 0.409615 22.2169 0.596771L26.6654 5.78698C27.0626 6.25047 27.2809 6.84072 27.281 7.45111V7.8859C27.2811 8.72987 27.0175 9.55277 26.527 10.2396C26.0366 10.9264 25.3438 11.4429 24.5455 11.7167C23.7472 11.9906 22.8833 12.0082 22.0745 11.7671C21.2657 11.526 20.5525 11.0382 20.0345 10.3719C19.6562 10.8591 19.1714 11.2534 18.6173 11.5244C18.0631 11.7954 17.4543 11.936 16.8375 11.9354C16.2206 11.9361 15.6117 11.7956 15.0576 11.5245C14.5034 11.2535 14.0187 10.8592 13.6405 10.3719C13.2623 10.8592 12.7775 11.2535 12.2234 11.5245C11.6692 11.7956 11.0604 11.9361 10.4435 11.9354C9.82662 11.9361 9.21777 11.7956 8.66361 11.5245C8.10946 11.2535 7.6247 10.8592 7.24651 10.3719C6.7285 11.0382 6.01525 11.526 5.20647 11.7671C4.39768 12.0082 3.53377 11.9906 2.73547 11.7167C1.93717 11.4429 1.24439 10.9264 0.753948 10.2396C0.263503 9.55277 -9.30939e-05 8.72987 2.46629e-08 7.8859V7.45111C2.14966e-05 6.84072 0.218344 6.25047 0.615527 5.78698L5.06573 0.595066L5.06403 0.596771ZM8.09904 7.8859C8.09904 8.50769 8.34604 9.10402 8.78571 9.54369C9.22538 9.98336 9.82171 10.2304 10.4435 10.2304C11.0653 10.2304 11.6616 9.98336 12.1013 9.54369C12.5409 9.10402 12.788 8.50769 12.788 7.8859C12.788 7.6598 12.8778 7.44296 13.0377 7.28307C13.1975 7.12319 13.4144 7.03337 13.6405 7.03337C13.8666 7.03337 14.0834 7.12319 14.2433 7.28307C14.4032 7.44296 14.493 7.6598 14.493 7.8859C14.493 8.50769 14.74 9.10402 15.1797 9.54369C15.6194 9.98336 16.2157 10.2304 16.8375 10.2304C17.4593 10.2304 18.0556 9.98336 18.4953 9.54369C18.9349 9.10402 19.1819 8.50769 19.1819 7.8859C19.1819 7.6598 19.2717 7.44296 19.4316 7.28307C19.5915 7.12319 19.8084 7.03337 20.0345 7.03337C20.2606 7.03337 20.4774 7.12319 20.6373 7.28307C20.7972 7.44296 20.887 7.6598 20.887 7.8859C20.887 8.50769 21.134 9.10402 21.5737 9.54369C22.0133 9.98336 22.6097 10.2304 23.2314 10.2304C23.8532 10.2304 24.4496 9.98336 24.8892 9.54369C25.3289 9.10402 25.5759 8.50769 25.5759 7.8859V7.45111C25.5759 7.24792 25.5034 7.0514 25.3713 6.89697L20.9211 1.70506H6.35988L1.90967 6.89697C1.77761 7.0514 1.70504 7.24792 1.70506 7.45111V7.8859C1.70506 8.50769 1.95207 9.10402 2.39174 9.54369C2.83141 9.98336 3.42773 10.2304 4.04952 10.2304C4.67131 10.2304 5.26763 9.98336 5.7073 9.54369C6.14697 9.10402 6.39398 8.50769 6.39398 7.8859C6.39398 7.6598 6.4838 7.44296 6.64368 7.28307C6.80356 7.12319 7.0204 7.03337 7.24651 7.03337C7.47261 7.03337 7.68946 7.12319 7.84934 7.28307C8.00922 7.44296 8.09904 7.6598 8.09904 7.8859ZM2.55759 12.788C2.7837 12.788 3.00054 12.8778 3.16042 13.0377C3.3203 13.1975 3.41012 13.4144 3.41012 13.6405V23.8708H5.11518V15.3455C5.11518 14.8933 5.29482 14.4596 5.61458 14.1399C5.93434 13.8201 6.36803 13.6405 6.82024 13.6405H11.9354C12.3876 13.6405 12.8213 13.8201 13.1411 14.1399C13.4608 14.4596 13.6405 14.8933 13.6405 15.3455V23.8708H23.8708V13.6405C23.8708 13.4144 23.9607 13.1975 24.1205 13.0377C24.2804 12.8778 24.4973 12.788 24.7234 12.788C24.9495 12.788 25.1663 12.8778 25.3262 13.0377C25.4861 13.1975 25.5759 13.4144 25.5759 13.6405V23.8708H26.4284C26.6545 23.8708 26.8714 23.9607 27.0313 24.1205C27.1911 24.2804 27.281 24.4973 27.281 24.7234C27.281 24.9495 27.1911 25.1663 27.0313 25.3262C26.8714 25.4861 26.6545 25.5759 26.4284 25.5759H0.85253C0.626425 25.5759 0.409581 25.4861 0.2497 25.3262C0.0898199 25.1663 2.46629e-08 24.9495 2.46629e-08 24.7234C2.46629e-08 24.4973 0.0898199 24.2804 0.2497 24.1205C0.409581 23.9607 0.626425 23.8708 0.85253 23.8708H1.70506V13.6405C1.70506 13.4144 1.79488 13.1975 1.95476 13.0377C2.11464 12.8778 2.33149 12.788 2.55759 12.788ZM6.82024 23.8708H11.9354V15.3455H6.82024V23.8708ZM15.3455 15.3455C15.3455 14.8933 15.5252 14.4596 15.8449 14.1399C16.1647 13.8201 16.5984 13.6405 17.0506 13.6405H20.4607C20.9129 13.6405 21.3466 13.8201 21.6664 14.1399C21.9861 14.4596 22.1658 14.8933 22.1658 15.3455V20.4607C22.1658 20.9129 21.9861 21.3466 21.6664 21.6664C21.3466 21.9861 20.9129 22.1658 20.4607 22.1658H17.0506C16.5984 22.1658 16.1647 21.9861 15.8449 21.6664C15.5252 21.3466 15.3455 20.9129 15.3455 20.4607V15.3455ZM20.4607 15.3455H17.0506V20.4607H20.4607V15.3455Z" fill="black"/>
</svg>
