<svg width="17" height="18" viewBox="0 0 17 18" fill="none" xmlns="http://www.w3.org/2000/svg">
<circle cx="8" cy="6" r="3.25" stroke="black" stroke-width="1.5"/>
<mask id="path-2-inside-1_389_251" fill="white">
<path fill-rule="evenodd" clip-rule="evenodd" d="M5 12.5H10C11.933 12.5 13.5 14.067 13.5 16V17.8H15V16C15 13.2386 12.7614 11 10 11H5C2.23858 11 0 13.2386 0 16V17.8H1.5V16C1.5 14.067 3.067 12.5 5 12.5Z"/>
</mask>
<path d="M13.5 17.8H12V19.3H13.5V17.8ZM15 17.8V19.3H16.5V17.8H15ZM0 17.8H-1.5V19.3H0V17.8ZM1.5 17.8V19.3H3V17.8H1.5ZM10 11H5V14H10V11ZM15 16C15 13.2386 12.7614 11 10 11V14C11.1046 14 12 14.8954 12 16H15ZM15 17.8V16H12V17.8H15ZM13.5 19.3H15V16.3H13.5V19.3ZM16.5 17.8V16H13.5V17.8H16.5ZM16.5 16C16.5 12.4101 13.5899 9.5 10 9.5V12.5C11.933 12.5 13.5 14.067 13.5 16H16.5ZM10 9.5H5V12.5H10V9.5ZM5 9.5C1.41015 9.5 -1.5 12.4101 -1.5 16H1.5C1.5 14.067 3.067 12.5 5 12.5V9.5ZM-1.5 16V17.8H1.5V16H-1.5ZM0 19.3H1.5V16.3H0V19.3ZM0 16V17.8H3V16H0ZM5 11C2.23858 11 0 13.2386 0 16H3C3 14.8954 3.89543 14 5 14V11Z" fill="black" mask="url(#path-2-inside-1_389_251)"/>
</svg>
