<svg width="41" height="26" viewBox="0 0 41 26" fill="none" xmlns="http://www.w3.org/2000/svg">
<rect x="0.520833" y="0.520833" width="39.9583" height="24.9583" rx="2.60417" stroke="#FFC502" stroke-width="1.04167"/>
<path d="M21.1012 10.6132C21.0812 12.1876 22.5043 13.0662 23.5763 13.5886C24.6777 14.1245 25.0477 14.4682 25.0433 14.9476C25.0351 15.6811 24.1647 16.0048 23.3503 16.0174C21.9294 16.0394 21.1032 15.6338 20.4464 15.327L19.9345 17.7221C20.5935 18.0258 21.8137 18.2906 23.0791 18.3022C26.0493 18.3022 27.9925 16.8361 28.003 14.5629C28.0146 11.6778 24.0124 11.5181 24.0398 10.2286C24.0492 9.83758 24.4223 9.42031 25.2399 9.31422C25.6446 9.26063 26.7617 9.21961 28.0283 9.80285L28.5254 7.48547C27.8443 7.23746 26.9688 6.99998 25.8789 6.99998C23.0833 6.99998 21.117 8.48611 21.1012 10.6132ZM33.3021 7.19959C32.7597 7.19959 32.3027 7.51596 32.0987 8.00144L27.8559 18.132H30.8239L31.4145 16.4997H35.0414L35.384 18.132H38L35.7172 7.19959H33.3021ZM33.7173 10.1529L34.5738 14.2581H32.228L33.7173 10.1529ZM17.5026 7.19973L15.163 18.1319H17.9913L20.3298 7.19945L17.5026 7.19973ZM13.3186 7.19945L10.3747 14.6406L9.18393 8.31371C9.0442 7.60742 8.4924 7.19959 7.87963 7.19959H3.0674L3 7.51705C3.98793 7.73143 5.11039 8.07719 5.79043 8.44715C6.2066 8.67314 6.32527 8.8707 6.46199 9.40773L8.71744 18.132H11.7063L16.2885 7.19959L13.3186 7.19945Z" fill="url(#paint0_linear_754_739)"/>
<defs>
<linearGradient id="paint0_linear_754_739" x1="19.0909" y1="18.529" x2="19.4181" y2="6.92138" gradientUnits="userSpaceOnUse">
<stop stop-color="#222357"/>
<stop offset="1" stop-color="#254AA5"/>
</linearGradient>
</defs>
</svg>
