<svg width="21" height="21" viewBox="0 0 21 21" fill="none" xmlns="http://www.w3.org/2000/svg">
<path d="M5.97743 1.81934H5.97746C6.97537 1.81934 7.97629 2.19604 8.78171 2.7949C9.58755 3.39408 10.1898 4.20967 10.4004 5.07927L10.5959 5.07418C10.7502 4.25156 11.3337 3.44166 12.1456 2.83554C12.9565 2.23019 13.9844 1.83644 15.012 1.83644C15.8101 1.83644 16.6083 2.07356 17.3089 2.63432C18.01 3.19546 18.6195 4.08568 19.0301 5.40168C20.0328 8.61634 18.0915 11.7842 15.7706 14.2676C14.6136 15.5055 13.3701 16.5648 12.3702 17.364C11.9476 17.7018 11.5689 17.9927 11.2584 18.2313C11.2016 18.2749 11.1471 18.3168 11.095 18.3569C10.9269 18.4864 10.7835 18.5976 10.6709 18.6888C10.6062 18.7412 10.55 18.7883 10.5044 18.8293C10.4565 18.7782 10.3965 18.7215 10.3271 18.6599C10.2137 18.5591 10.0697 18.4403 9.90114 18.305C9.74504 18.1798 9.56249 18.0363 9.36143 17.8781C9.13542 17.7004 8.88601 17.5042 8.6245 17.2951C7.62413 16.4949 6.38074 15.4524 5.22394 14.2343C2.90392 11.7912 0.962819 8.67418 1.96648 5.40505C2.3705 4.08908 2.97676 3.19355 3.67711 2.62721C4.37694 2.06127 5.17665 1.81915 5.97743 1.81934ZM1.2189 5.09554L1.2189 5.09555C0.288505 8.12588 1.51611 10.9605 3.31408 13.3046C5.11206 15.6487 7.49494 17.5217 8.91484 18.6378L8.91609 18.6388C9.14508 18.8189 9.38831 19.0102 9.58702 19.1723C9.6864 19.2533 9.77395 19.3266 9.84267 19.3871C9.91173 19.4478 9.95649 19.4913 9.97654 19.5157L10.3721 20.0589L10.4447 20.1586L10.5273 20.0669L10.9684 19.577C10.9998 19.5443 11.0955 19.4653 11.2322 19.3577C11.3668 19.2517 11.5334 19.1237 11.6979 18.9975L11.6979 18.9974L11.6989 18.9967C13.0609 17.9504 15.56 16.0306 17.4784 13.6C19.3959 11.1705 20.75 8.20848 19.7762 5.08751C18.9551 2.45415 17.2236 0.91672 15.0124 0.91672C13.2122 0.91672 11.4342 1.92368 10.4796 3.32618C9.49931 1.90425 7.74366 0.900377 5.97748 0.9L5.97746 1V0.9H5.97682C3.76143 0.9 2.03224 2.44706 1.2189 5.09554Z" fill="black" stroke="black" stroke-width="0.2"/>
</svg>
