<svg width="19" height="19" viewBox="0 0 19 19" fill="none" xmlns="http://www.w3.org/2000/svg">
<path d="M15.1607 12.4381C14.6205 12.4382 14.0865 12.536 13.5937 12.725C13.1009 12.914 12.6605 13.1899 12.3014 13.5347L7.36075 10.8149C7.57395 10.4014 7.68406 9.95447 7.68406 9.50258C7.68406 9.05069 7.57395 8.60374 7.36075 8.19021L12.3014 5.47049C12.9003 6.0417 13.7146 6.41552 14.6026 6.52701C15.4906 6.6385 16.3962 6.48061 17.1621 6.08077C17.9281 5.68093 18.5059 5.06441 18.7951 4.33835C19.0844 3.61228 19.0669 2.82256 18.7455 2.1064C18.4242 1.39024 17.8195 0.792904 17.0363 0.418195C16.2532 0.043486 15.3412 -0.0849181 14.4588 0.0552943C13.5764 0.195507 12.7793 0.595473 12.2062 1.1857C11.633 1.77592 11.3199 2.51909 11.3213 3.28608C11.318 3.73827 11.4282 4.18581 11.6446 4.59846L6.70402 7.31817C6.18607 6.82214 5.50401 6.47227 4.74817 6.3149C3.99233 6.15753 3.19839 6.20009 2.47149 6.43694C1.74459 6.67379 1.11903 7.09375 0.67768 7.64121C0.236327 8.18866 0 8.83778 0 9.50258C0 10.1674 0.236327 10.8165 0.67768 11.3639C1.11903 11.9114 1.74459 12.3314 2.47149 12.5682C3.19839 12.8051 3.99233 12.8476 4.74817 12.6903C5.50401 12.5329 6.18607 12.183 6.70402 11.687L11.6446 14.4067C11.4282 14.8194 11.318 15.2669 11.3213 15.7191C11.3213 16.368 11.5465 17.0023 11.9684 17.5419C12.3902 18.0814 12.9899 18.5019 13.6914 18.7503C14.393 18.9986 15.1649 19.0636 15.9097 18.937C16.6544 18.8104 17.3385 18.4979 17.8755 18.039C18.4124 17.5802 18.7781 16.9956 18.9262 16.3591C19.0744 15.7227 18.9983 15.063 18.7077 14.4635C18.4172 13.864 17.9251 13.3516 17.2937 12.9911C16.6623 12.6306 15.92 12.4381 15.1607 12.4381V12.4381ZM15.1607 1.04124C15.6802 1.04124 16.1881 1.1729 16.6201 1.41956C17.0521 1.66623 17.3888 2.01683 17.5876 2.42702C17.7864 2.83721 17.8385 3.28858 17.7371 3.72403C17.6357 4.15949 17.3856 4.55948 17.0182 4.87343C16.6508 5.18738 16.1827 5.40118 15.6731 5.4878C15.1636 5.57441 14.6354 5.52996 14.1554 5.36005C13.6754 5.19014 13.2651 4.90242 12.9765 4.53325C12.6878 4.16409 12.5337 3.73007 12.5337 3.28608C12.5364 2.69141 12.814 2.12175 13.3061 1.70125C13.7982 1.28075 14.4648 1.04351 15.1607 1.04124V1.04124ZM3.84472 11.7474C3.32517 11.7474 2.81728 11.6158 2.38529 11.3691C1.95329 11.1224 1.6166 10.7718 1.41777 10.3616C1.21895 9.95145 1.16692 9.50009 1.26828 9.06463C1.36964 8.62917 1.61983 8.22918 1.98721 7.91523C2.35459 7.60129 2.82267 7.38749 3.33224 7.30087C3.84181 7.21425 4.36999 7.25871 4.85 7.42861C5.33001 7.59852 5.74027 7.88625 6.02892 8.25541C6.31757 8.62457 6.47164 9.05859 6.47164 9.50258C6.46898 10.0972 6.19136 10.6669 5.69929 11.0874C5.20723 11.5079 4.5406 11.7451 3.84472 11.7474ZM15.1607 17.9639C14.6411 17.9639 14.1332 17.8323 13.7012 17.5856C13.2692 17.3389 12.9325 16.9883 12.7337 16.5781C12.5349 16.1679 12.4829 15.7166 12.5842 15.2811C12.6856 14.8457 12.9358 14.4457 13.3032 14.1317C13.6705 13.8178 14.1386 13.604 14.6482 13.5174C15.1577 13.4307 15.6859 13.4752 16.1659 13.6451C16.6459 13.815 17.0562 14.1027 17.3449 14.4719C17.6335 14.8411 17.7876 15.2751 17.7876 15.7191C17.7849 16.3137 17.5073 16.8834 17.0152 17.3039C16.5232 17.7244 15.8565 17.9616 15.1607 17.9639V17.9639Z" fill="black"/>
</svg>
