<svg width="21" height="21" viewBox="0 0 21 21" fill="none" xmlns="http://www.w3.org/2000/svg">
<path d="M19.9795 7.12343L19.9771 7.12782L19.9769 7.12767L19.9293 7.19569L19.9268 7.19931L19.9267 7.19918L15.3666 12.6401C15.3665 12.6402 15.3664 12.6403 15.3664 12.6404C15.3277 12.6879 15.281 12.7262 15.2287 12.7526C15.1763 12.7791 15.1195 12.793 15.0618 12.793C15.004 12.793 14.9472 12.7791 14.8948 12.7526C14.8426 12.7263 14.796 12.688 14.7574 12.6407C14.7572 12.6405 14.7571 12.6403 14.7569 12.6401L14.7957 12.6086C14.7601 12.5674 14.7318 12.518 14.7124 12.4635C14.6931 12.409 14.6831 12.3504 14.6831 12.2912C14.6831 12.232 14.6931 12.1734 14.7124 12.1188C14.7318 12.0643 14.7601 12.015 14.7957 11.9737L19.9795 7.12343ZM19.9795 7.12343L19.9985 7.08942L19.9988 7.08958L20.001 7.08436L20.02 7.03901L20.0239 7.02974V7.02352L20.026 7.01716C20.0283 7.01034 20.0311 7.00113 20.0325 6.98956C20.0353 6.98389 20.0375 6.97798 20.0392 6.97197L20.0392 6.97195C20.0418 6.96261 20.0431 6.95295 20.043 6.94332C20.0523 6.88135 20.0523 6.81793 20.043 6.75597C20.0431 6.74633 20.0418 6.73667 20.0392 6.72733L20.0392 6.72732C20.0375 6.7213 20.0353 6.7154 20.0325 6.70972C20.0311 6.69815 20.0283 6.68895 20.026 6.68212L20.0239 6.67576V6.66954L20.02 6.66027L20.001 6.61492L20.0013 6.6148L19.9985 6.60986L19.9795 6.57585L19.9797 6.57573L19.9769 6.57161L19.9293 6.50359L19.9295 6.50348L19.9267 6.5001L15.3661 1.05858L15.3665 1.05824L15.3611 1.05343C15.2785 0.979502 15.1746 0.942328 15.0686 0.95132C14.9627 0.960301 14.865 1.01443 14.7927 1.1007L14.8309 1.1327L14.7927 1.1007C14.7205 1.1868 14.6778 1.2997 14.6708 1.41834C14.6637 1.537 14.6926 1.65547 14.7534 1.75215L14.753 1.75239L14.7574 1.75761L18.5937 6.34618M19.9795 7.12343L18.5937 6.34618M14.3018 6.34618C14.3017 6.34618 14.3017 6.34618 14.3017 6.34618C12.1808 6.34093 10.1204 7.17965 8.44622 8.72738C6.77223 10.2749 5.5797 12.443 5.05568 14.8878C5.02714 15.0141 5.04151 15.149 5.09633 15.2634C5.15122 15.378 5.24335 15.4649 5.35494 15.5016L5.36254 15.5041H5.37054L5.46556 15.5041L5.46628 15.5041C5.56381 15.5026 5.65704 15.4635 5.73215 15.3945C5.80709 15.3258 5.86013 15.231 5.8848 15.1253L5.88496 15.1246C6.36935 12.8965 7.45995 10.925 8.98393 9.5189C10.5077 8.11296 12.3783 7.35192 14.3016 7.3531H14.3017H18.5937L14.7579 11.941C14.7578 11.9412 14.7577 11.9413 14.7576 11.9414L14.3017 6.39618L14.3018 6.34618ZM14.3018 6.34618L18.5937 6.34618M14.3018 6.34618L18.5937 6.34618M16.889 19.8993C16.9685 19.8045 17.012 19.6775 17.012 19.5465C17.012 19.4156 16.9685 19.2886 16.889 19.1938C16.8093 19.0987 16.6991 19.0431 16.5819 19.0431H2.14014C2.05574 19.0431 1.97259 19.0031 1.90973 18.9281C1.84665 18.8529 1.81009 18.7492 1.81009 18.6396V5.0358C1.81009 4.90485 1.76657 4.77786 1.6871 4.68304C1.60741 4.58795 1.49724 4.53234 1.38005 4.53234C1.26286 4.53234 1.15268 4.58795 1.07299 4.68304C0.993522 4.77786 0.95 4.90485 0.95 5.0358V18.6396C0.95 19.0111 1.0736 19.3688 1.29562 19.6337C1.51785 19.8988 1.82136 20.05 2.14014 20.05H16.5819C16.6991 20.05 16.8093 19.9944 16.889 19.8993Z" fill="black" stroke="black" stroke-width="0.1"/>
</svg>
