<svg width="156" height="58" viewBox="0 0 156 58" fill="none" xmlns="http://www.w3.org/2000/svg">
<path d="M26.1808 0H155.861L133.33 58H0.144653L26.1808 0Z" fill="#FFC502"/>
<g filter="url(#filter0_d_946_382)">
<path d="M59.8825 32.89C59.8265 32.918 59.8265 32.946 59.8825 32.974C60.7692 33.4313 61.2125 34.192 61.2125 35.256C61.2125 36.1613 60.9045 36.8473 60.2885 37.314C59.6725 37.7713 58.8652 38 57.8665 38H54.2405C54.1938 38 54.1518 37.986 54.1145 37.958C54.0865 37.9207 54.0725 37.8787 54.0725 37.832V28.368C54.0725 28.3213 54.0865 28.284 54.1145 28.256C54.1518 28.2187 54.1938 28.2 54.2405 28.2H57.7545C59.9665 28.2 61.0725 29.096 61.0725 30.888C61.0725 31.8213 60.6758 32.4887 59.8825 32.89ZM56.1165 29.894C56.0698 29.894 56.0465 29.9173 56.0465 29.964V32.148C56.0465 32.1947 56.0698 32.218 56.1165 32.218H57.7545C58.1932 32.218 58.5338 32.1153 58.7765 31.91C59.0192 31.7047 59.1405 31.4247 59.1405 31.07C59.1405 30.706 59.0192 30.4213 58.7765 30.216C58.5338 30.0013 58.1932 29.894 57.7545 29.894H56.1165ZM57.8665 36.292C58.2958 36.292 58.6318 36.1847 58.8745 35.97C59.1172 35.746 59.2385 35.4427 59.2385 35.06C59.2385 34.6773 59.1172 34.3787 58.8745 34.164C58.6318 33.94 58.2912 33.828 57.8525 33.828H56.1165C56.0698 33.828 56.0465 33.8513 56.0465 33.898V36.222C56.0465 36.2687 56.0698 36.292 56.1165 36.292H57.8665ZM66.3101 38.112C65.5915 38.112 64.9568 37.972 64.4061 37.692C63.8648 37.412 63.4401 37.02 63.1321 36.516C62.8335 36.0027 62.6841 35.4147 62.6841 34.752V28.368C62.6841 28.3213 62.6981 28.284 62.7261 28.256C62.7635 28.2187 62.8055 28.2 62.8521 28.2H64.4901C64.5368 28.2 64.5741 28.2187 64.6021 28.256C64.6395 28.284 64.6581 28.3213 64.6581 28.368V34.766C64.6581 35.2607 64.8075 35.662 65.1061 35.97C65.4141 36.2687 65.8155 36.418 66.3101 36.418C66.8048 36.418 67.2015 36.2687 67.5001 35.97C67.8081 35.662 67.9621 35.2607 67.9621 34.766V28.368C67.9621 28.3213 67.9761 28.284 68.0041 28.256C68.0415 28.2187 68.0835 28.2 68.1301 28.2H69.7681C69.8148 28.2 69.8521 28.2187 69.8801 28.256C69.9175 28.284 69.9361 28.3213 69.9361 28.368V34.752C69.9361 35.4147 69.7821 36.0027 69.4741 36.516C69.1755 37.02 68.7508 37.412 68.2001 37.692C67.6588 37.972 67.0288 38.112 66.3101 38.112ZM74.2048 37.986C74.1582 37.986 74.1162 37.972 74.0788 37.944C74.0508 37.9067 74.0368 37.8647 74.0368 37.818V34.276C74.0368 34.2387 74.0322 34.2107 74.0228 34.192L71.1388 28.396C71.1202 28.3587 71.1108 28.3307 71.1108 28.312C71.1108 28.2373 71.1622 28.2 71.2648 28.2H73.0288C73.1222 28.2 73.1875 28.242 73.2248 28.326L74.9748 32.05C75.0028 32.106 75.0308 32.106 75.0588 32.05L76.8088 28.326C76.8462 28.242 76.9115 28.2 77.0048 28.2H78.7968C78.8622 28.2 78.9042 28.2187 78.9228 28.256C78.9508 28.284 78.9508 28.3307 78.9228 28.396L76.0108 34.192C76.0015 34.2107 75.9968 34.2387 75.9968 34.276V37.818C75.9968 37.8647 75.9782 37.9067 75.9408 37.944C75.9128 37.972 75.8755 37.986 75.8288 37.986H74.2048ZM88.6302 28.368C88.6302 28.3213 88.6442 28.284 88.6722 28.256C88.7095 28.2187 88.7515 28.2 88.7982 28.2H90.4362C90.4829 28.2 90.5202 28.2187 90.5482 28.256C90.5855 28.284 90.6042 28.3213 90.6042 28.368V37.832C90.6042 37.8787 90.5855 37.9207 90.5482 37.958C90.5202 37.986 90.4829 38 90.4362 38H88.8542C88.7609 38 88.6955 37.9627 88.6582 37.888L85.0322 31.896C85.0135 31.868 84.9949 31.8587 84.9762 31.868C84.9575 31.868 84.9482 31.8867 84.9482 31.924L84.9762 37.832C84.9762 37.8787 84.9575 37.9207 84.9202 37.958C84.8922 37.986 84.8549 38 84.8082 38H83.1702C83.1235 38 83.0815 37.986 83.0442 37.958C83.0162 37.9207 83.0022 37.8787 83.0022 37.832V28.368C83.0022 28.3213 83.0162 28.284 83.0442 28.256C83.0815 28.2187 83.1235 28.2 83.1702 28.2H84.7522C84.8455 28.2 84.9109 28.2373 84.9482 28.312L88.5602 34.276C88.5789 34.304 88.5975 34.318 88.6162 34.318C88.6349 34.3087 88.6442 34.2853 88.6442 34.248L88.6302 28.368ZM95.7987 38.154C95.0707 38.154 94.4267 38.0047 93.8667 37.706C93.3161 37.4073 92.8867 36.992 92.5787 36.46C92.2707 35.9187 92.1167 35.298 92.1167 34.598V31.602C92.1167 30.9113 92.2707 30.3 92.5787 29.768C92.8867 29.236 93.3161 28.8253 93.8667 28.536C94.4267 28.2373 95.0707 28.088 95.7987 28.088C96.5361 28.088 97.1801 28.2373 97.7307 28.536C98.2907 28.8253 98.7247 29.236 99.0327 29.768C99.3407 30.3 99.4947 30.9113 99.4947 31.602V34.598C99.4947 35.298 99.3407 35.9187 99.0327 36.46C98.7247 37.0013 98.2907 37.4213 97.7307 37.72C97.1801 38.0093 96.5361 38.154 95.7987 38.154ZM95.7987 36.46C96.3121 36.46 96.7274 36.2967 97.0447 35.97C97.3621 35.6433 97.5207 35.2093 97.5207 34.668V31.588C97.5207 31.0467 97.3621 30.6127 97.0447 30.286C96.7367 29.95 96.3214 29.782 95.7987 29.782C95.2854 29.782 94.8701 29.95 94.5527 30.286C94.2447 30.6127 94.0907 31.0467 94.0907 31.588V34.668C94.0907 35.2093 94.2447 35.6433 94.5527 35.97C94.8701 36.2967 95.2854 36.46 95.7987 36.46ZM102.973 38C102.87 38 102.805 37.9533 102.777 37.86L100.299 28.382L100.285 28.326C100.285 28.242 100.336 28.2 100.439 28.2H102.175C102.268 28.2 102.329 28.2467 102.357 28.34L103.687 34.038C103.696 34.0753 103.71 34.094 103.729 34.094C103.748 34.094 103.762 34.0753 103.771 34.038L105.059 28.354C105.087 28.2513 105.148 28.2 105.241 28.2H106.935C107.038 28.2 107.103 28.2467 107.131 28.34L108.531 34.038C108.54 34.066 108.554 34.0847 108.573 34.094C108.592 34.094 108.606 34.0753 108.615 34.038L109.903 28.354C109.931 28.2513 109.992 28.2 110.085 28.2H111.737C111.868 28.2 111.919 28.2607 111.891 28.382L109.595 37.86C109.567 37.9533 109.502 38 109.399 38H107.733C107.64 38 107.579 37.9533 107.551 37.86L106.123 31.798C106.114 31.7607 106.1 31.742 106.081 31.742C106.062 31.742 106.048 31.7607 106.039 31.798L104.709 37.846C104.69 37.9487 104.63 38 104.527 38H102.973Z" fill="white"/>
</g>
<defs>
<filter id="filter0_d_946_382" x="53.0725" y="27.588" width="59.8605" height="12.066" filterUnits="userSpaceOnUse" color-interpolation-filters="sRGB">
<feFlood flood-opacity="0" result="BackgroundImageFix"/>
<feColorMatrix in="SourceAlpha" type="matrix" values="0 0 0 0 0 0 0 0 0 0 0 0 0 0 0 0 0 0 127 0" result="hardAlpha"/>
<feOffset dy="0.5"/>
<feGaussianBlur stdDeviation="0.5"/>
<feComposite in2="hardAlpha" operator="out"/>
<feColorMatrix type="matrix" values="0 0 0 0 0 0 0 0 0 0 0 0 0 0 0 0 0 0 0.25 0"/>
<feBlend mode="normal" in2="BackgroundImageFix" result="effect1_dropShadow_946_382"/>
<feBlend mode="normal" in="SourceGraphic" in2="effect1_dropShadow_946_382" result="shape"/>
</filter>
</defs>
</svg>
