<svg width="32" height="32" viewBox="0 0 32 32" fill="none" xmlns="http://www.w3.org/2000/svg">
<path d="M27 8H5C4.44772 8 4 8.44772 4 9V27C4 27.5523 4.44772 28 5 28H27C27.5523 28 28 27.5523 28 27V9C28 8.44772 27.5523 8 27 8Z" stroke="black" stroke-width="1.5" stroke-linecap="round" stroke-linejoin="round"/>
<path d="M11 10V6C11 4.67392 11.5268 3.40215 12.4645 2.46447C13.4021 1.52678 14.6739 1 16 1C17.3261 1 18.5979 1.52678 19.5355 2.46447C20.4732 3.40215 21 4.67392 21 6V10" stroke="black" stroke-width="1.5" stroke-linecap="round" stroke-linejoin="round"/>
</svg>
