<svg width="132" height="58" viewBox="0 0 132 58" fill="none" xmlns="http://www.w3.org/2000/svg">
<path d="M0 0H131.182L108.549 58H0V0Z" fill="#1C405D"/>
<g filter="url(#filter0_d_946_379)">
<path d="M26.056 37C25.9533 37 25.888 36.9533 25.86 36.86L23.382 27.382L23.368 27.326C23.368 27.242 23.4193 27.2 23.522 27.2H25.258C25.3513 27.2 25.412 27.2467 25.44 27.34L26.77 33.038C26.7793 33.0753 26.7933 33.094 26.812 33.094C26.8306 33.094 26.8446 33.0753 26.854 33.038L28.142 27.354C28.17 27.2513 28.2306 27.2 28.324 27.2H30.018C30.1206 27.2 30.186 27.2467 30.214 27.34L31.614 33.038C31.6233 33.066 31.6373 33.0847 31.656 33.094C31.6746 33.094 31.6886 33.0753 31.698 33.038L32.986 27.354C33.014 27.2513 33.0746 27.2 33.168 27.2H34.82C34.9507 27.2 35.002 27.2607 34.974 27.382L32.678 36.86C32.65 36.9533 32.5846 37 32.482 37H30.816C30.7226 37 30.662 36.9533 30.634 36.86L29.206 30.798C29.1966 30.7607 29.1826 30.742 29.164 30.742C29.1453 30.742 29.1313 30.7607 29.122 30.798L27.792 36.846C27.7733 36.9487 27.7126 37 27.61 37H26.056ZM40.9851 37C40.8918 37 40.8311 36.9533 40.8031 36.86L40.3831 35.488C40.3645 35.4507 40.3411 35.432 40.3131 35.432H36.8691C36.8411 35.432 36.8178 35.4507 36.7991 35.488L36.3931 36.86C36.3651 36.9533 36.3045 37 36.2111 37H34.4331C34.3771 37 34.3351 36.986 34.3071 36.958C34.2791 36.9207 34.2745 36.8693 34.2931 36.804L37.3171 27.34C37.3451 27.2467 37.4058 27.2 37.4991 27.2H39.6971C39.7905 27.2 39.8511 27.2467 39.8791 27.34L42.9031 36.804C42.9125 36.8227 42.9171 36.846 42.9171 36.874C42.9171 36.958 42.8658 37 42.7631 37H40.9851ZM37.3031 33.822C37.2938 33.878 37.3125 33.906 37.3591 33.906H39.8231C39.8791 33.906 39.8978 33.878 39.8791 33.822L38.6191 29.664C38.6098 29.6267 38.5958 29.6127 38.5771 29.622C38.5585 29.622 38.5445 29.636 38.5351 29.664L37.3031 33.822ZM49.7066 27.2C49.7532 27.2 49.7906 27.2187 49.8186 27.256C49.8559 27.284 49.8746 27.3213 49.8746 27.368V28.74C49.8746 28.7867 49.8559 28.8287 49.8186 28.866C49.7906 28.894 49.7532 28.908 49.7066 28.908H47.2006C47.1539 28.908 47.1306 28.9313 47.1306 28.978V36.832C47.1306 36.8787 47.1119 36.9207 47.0746 36.958C47.0466 36.986 47.0092 37 46.9626 37H45.3246C45.2779 37 45.2359 36.986 45.1986 36.958C45.1706 36.9207 45.1566 36.8787 45.1566 36.832V28.978C45.1566 28.9313 45.1332 28.908 45.0866 28.908H42.6506C42.6039 28.908 42.5619 28.894 42.5246 28.866C42.4966 28.8287 42.4826 28.7867 42.4826 28.74V27.368C42.4826 27.3213 42.4966 27.284 42.5246 27.256C42.5619 27.2187 42.6039 27.2 42.6506 27.2H49.7066ZM54.1815 37.112C53.4535 37.112 52.8142 36.972 52.2635 36.692C51.7129 36.4027 51.2882 36.0013 50.9895 35.488C50.6909 34.9747 50.5415 34.382 50.5415 33.71V30.476C50.5415 29.804 50.6909 29.2113 50.9895 28.698C51.2882 28.1847 51.7129 27.788 52.2635 27.508C52.8142 27.228 53.4535 27.088 54.1815 27.088C54.9002 27.088 55.5302 27.2233 56.0715 27.494C56.6222 27.7553 57.0469 28.1333 57.3455 28.628C57.6535 29.1133 57.8075 29.678 57.8075 30.322C57.8075 30.406 57.7515 30.4573 57.6395 30.476L56.0015 30.574H55.9735C55.8802 30.574 55.8335 30.5227 55.8335 30.42C55.8335 29.9253 55.6795 29.5287 55.3715 29.23C55.0729 28.9313 54.6762 28.782 54.1815 28.782C53.6775 28.782 53.2715 28.9313 52.9635 29.23C52.6649 29.5287 52.5155 29.9253 52.5155 30.42V33.794C52.5155 34.2793 52.6649 34.6713 52.9635 34.97C53.2715 35.2687 53.6775 35.418 54.1815 35.418C54.6762 35.418 55.0729 35.2687 55.3715 34.97C55.6795 34.6713 55.8335 34.2793 55.8335 33.794C55.8335 33.6913 55.8895 33.64 56.0015 33.64L57.6395 33.71C57.6862 33.71 57.7235 33.724 57.7515 33.752C57.7889 33.78 57.8075 33.8127 57.8075 33.85C57.8075 34.494 57.6535 35.0633 57.3455 35.558C57.0469 36.0527 56.6222 36.4353 56.0715 36.706C55.5302 36.9767 54.9002 37.112 54.1815 37.112ZM64.4631 27.368C64.4631 27.3213 64.4771 27.284 64.5051 27.256C64.5425 27.2187 64.5845 27.2 64.6311 27.2H66.2691C66.3158 27.2 66.3531 27.2187 66.3811 27.256C66.4185 27.284 66.4371 27.3213 66.4371 27.368V36.832C66.4371 36.8787 66.4185 36.9207 66.3811 36.958C66.3531 36.986 66.3158 37 66.2691 37H64.6311C64.5845 37 64.5425 36.986 64.5051 36.958C64.4771 36.9207 64.4631 36.8787 64.4631 36.832V32.968C64.4631 32.9213 64.4398 32.898 64.3931 32.898H61.2991C61.2525 32.898 61.2291 32.9213 61.2291 32.968V36.832C61.2291 36.8787 61.2105 36.9207 61.1731 36.958C61.1451 36.986 61.1078 37 61.0611 37H59.4231C59.3765 37 59.3345 36.986 59.2971 36.958C59.2691 36.9207 59.2551 36.8787 59.2551 36.832V27.368C59.2551 27.3213 59.2691 27.284 59.2971 27.256C59.3345 27.2187 59.3765 27.2 59.4231 27.2H61.0611C61.1078 27.2 61.1451 27.2187 61.1731 27.256C61.2105 27.284 61.2291 27.3213 61.2291 27.368V31.134C61.2291 31.1807 61.2525 31.204 61.2991 31.204H64.3931C64.4398 31.204 64.4631 31.1807 64.4631 31.134V27.368ZM76.4769 27.368C76.4769 27.3213 76.4909 27.284 76.5189 27.256C76.5562 27.2187 76.5982 27.2 76.6449 27.2H78.2829C78.3295 27.2 78.3669 27.2187 78.3949 27.256C78.4322 27.284 78.4509 27.3213 78.4509 27.368V36.832C78.4509 36.8787 78.4322 36.9207 78.3949 36.958C78.3669 36.986 78.3295 37 78.2829 37H76.7009C76.6075 37 76.5422 36.9627 76.5049 36.888L72.8789 30.896C72.8602 30.868 72.8415 30.8587 72.8229 30.868C72.8042 30.868 72.7949 30.8867 72.7949 30.924L72.8229 36.832C72.8229 36.8787 72.8042 36.9207 72.7669 36.958C72.7389 36.986 72.7015 37 72.6549 37H71.0169C70.9702 37 70.9282 36.986 70.8909 36.958C70.8629 36.9207 70.8489 36.8787 70.8489 36.832V27.368C70.8489 27.3213 70.8629 27.284 70.8909 27.256C70.9282 27.2187 70.9702 27.2 71.0169 27.2H72.5989C72.6922 27.2 72.7575 27.2373 72.7949 27.312L76.4069 33.276C76.4255 33.304 76.4442 33.318 76.4629 33.318C76.4815 33.3087 76.4909 33.2853 76.4909 33.248L76.4769 27.368ZM83.6454 37.154C82.9174 37.154 82.2734 37.0047 81.7134 36.706C81.1628 36.4073 80.7334 35.992 80.4254 35.46C80.1174 34.9187 79.9634 34.298 79.9634 33.598V30.602C79.9634 29.9113 80.1174 29.3 80.4254 28.768C80.7334 28.236 81.1628 27.8253 81.7134 27.536C82.2734 27.2373 82.9174 27.088 83.6454 27.088C84.3828 27.088 85.0268 27.2373 85.5774 27.536C86.1374 27.8253 86.5714 28.236 86.8794 28.768C87.1874 29.3 87.3414 29.9113 87.3414 30.602V33.598C87.3414 34.298 87.1874 34.9187 86.8794 35.46C86.5714 36.0013 86.1374 36.4213 85.5774 36.72C85.0268 37.0093 84.3828 37.154 83.6454 37.154ZM83.6454 35.46C84.1588 35.46 84.5741 35.2967 84.8914 34.97C85.2088 34.6433 85.3674 34.2093 85.3674 33.668V30.588C85.3674 30.0467 85.2088 29.6127 84.8914 29.286C84.5834 28.95 84.1681 28.782 83.6454 28.782C83.1321 28.782 82.7168 28.95 82.3994 29.286C82.0914 29.6127 81.9374 30.0467 81.9374 30.588V33.668C81.9374 34.2093 82.0914 34.6433 82.3994 34.97C82.7168 35.2967 83.1321 35.46 83.6454 35.46ZM90.8197 37C90.717 37 90.6517 36.9533 90.6237 36.86L88.1457 27.382L88.1317 27.326C88.1317 27.242 88.183 27.2 88.2857 27.2H90.0217C90.115 27.2 90.1757 27.2467 90.2037 27.34L91.5337 33.038C91.543 33.0753 91.557 33.094 91.5757 33.094C91.5943 33.094 91.6083 33.0753 91.6177 33.038L92.9057 27.354C92.9337 27.2513 92.9943 27.2 93.0877 27.2H94.7817C94.8843 27.2 94.9497 27.2467 94.9777 27.34L96.3777 33.038C96.387 33.066 96.401 33.0847 96.4197 33.094C96.4383 33.094 96.4523 33.0753 96.4617 33.038L97.7497 27.354C97.7777 27.2513 97.8383 27.2 97.9317 27.2H99.5837C99.7143 27.2 99.7657 27.2607 99.7377 27.382L97.4417 36.86C97.4137 36.9533 97.3483 37 97.2457 37H95.5797C95.4863 37 95.4257 36.9533 95.3977 36.86L93.9697 30.798C93.9603 30.7607 93.9463 30.742 93.9277 30.742C93.909 30.742 93.895 30.7607 93.8857 30.798L92.5557 36.846C92.537 36.9487 92.4763 37 92.3737 37H90.8197Z" fill="white"/>
</g>
<defs>
<filter id="filter0_d_946_379" x="22.537" y="26.4648" width="78.0736" height="11.728" filterUnits="userSpaceOnUse" color-interpolation-filters="sRGB">
<feFlood flood-opacity="0" result="BackgroundImageFix"/>
<feColorMatrix in="SourceAlpha" type="matrix" values="0 0 0 0 0 0 0 0 0 0 0 0 0 0 0 0 0 0 127 0" result="hardAlpha"/>
<feOffset dy="0.207745"/>
<feGaussianBlur stdDeviation="0.41549"/>
<feComposite in2="hardAlpha" operator="out"/>
<feColorMatrix type="matrix" values="0 0 0 0 0 0 0 0 0 0 0 0 0 0 0 0 0 0 0.25 0"/>
<feBlend mode="normal" in2="BackgroundImageFix" result="effect1_dropShadow_946_379"/>
<feBlend mode="normal" in="SourceGraphic" in2="effect1_dropShadow_946_379" result="shape"/>
</filter>
</defs>
</svg>
