<svg width="21" height="20" viewBox="0 0 21 20" fill="none" xmlns="http://www.w3.org/2000/svg">
<path d="M7.0275 9.43892C7.0275 9.75865 6.90049 10.0653 6.67441 10.2914C6.44833 10.5174 6.1417 10.6444 5.82198 10.6444C5.50225 10.6444 5.19562 10.5174 4.96954 10.2914C4.74347 10.0653 4.61646 9.75865 4.61646 9.43892C4.61646 9.1192 4.74347 8.81257 4.96954 8.58649C5.19562 8.36041 5.50225 8.2334 5.82198 8.2334C6.1417 8.2334 6.44833 8.36041 6.67441 8.58649C6.90049 8.81257 7.0275 9.1192 7.0275 9.43892ZM11.8496 9.43892C11.8496 9.75865 11.7226 10.0653 11.4965 10.2914C11.2704 10.5174 10.9638 10.6444 10.6441 10.6444C10.3243 10.6444 10.0177 10.5174 9.79163 10.2914C9.56556 10.0653 9.43855 9.75865 9.43855 9.43892C9.43855 9.1192 9.56556 8.81257 9.79163 8.58649C10.0177 8.36041 10.3243 8.2334 10.6441 8.2334C10.9638 8.2334 11.2704 8.36041 11.4965 8.58649C11.7226 8.81257 11.8496 9.1192 11.8496 9.43892ZM15.4662 10.6444C15.7859 10.6444 16.0925 10.5174 16.3186 10.2914C16.5447 10.0653 16.6717 9.75865 16.6717 9.43892C16.6717 9.1192 16.5447 8.81257 16.3186 8.58649C16.0925 8.36041 15.7859 8.2334 15.4662 8.2334C15.1464 8.2334 14.8398 8.36041 14.6137 8.58649C14.3876 8.81257 14.2606 9.1192 14.2606 9.43892C14.2606 9.75865 14.3876 10.0653 14.6137 10.2914C14.8398 10.5174 15.1464 10.6444 15.4662 10.6444Z" fill="#FFC500"/>
<path d="M3.60996 18.8454L3.63407 18.8405C5.84017 18.4029 7.18795 17.8255 7.81482 17.5084C8.73775 17.7546 9.68899 17.8786 10.6442 17.8773C15.9702 17.8773 20.2884 14.0992 20.2884 9.43866C20.2884 4.77811 15.9702 1 10.6442 1C5.31818 1 1 4.77811 1 9.43866C1 11.5604 1.8957 13.5013 3.37488 14.9841C3.27139 15.9365 3.05946 16.8741 2.74319 17.7785L2.73957 17.7917C2.64969 18.0508 2.55159 18.3069 2.44542 18.5596C2.35019 18.7839 2.53463 19.0346 2.77453 18.996C3.0538 18.9503 3.33231 18.9001 3.60996 18.8454ZM4.57437 15.0986C4.59126 14.9221 4.56901 14.7441 4.50921 14.5771C4.4494 14.4102 4.35352 14.2586 4.22839 14.133C2.95054 12.8503 2.20552 11.2084 2.20552 9.43866C2.20552 5.59063 5.82691 2.20552 10.6442 2.20552C15.4614 2.20552 19.0828 5.59063 19.0828 9.43866C19.0828 13.2879 15.4614 16.6718 10.6442 16.6718C9.79441 16.673 8.94814 16.5628 8.12705 16.3439C7.84011 16.267 7.53488 16.2988 7.26992 16.4331C6.80339 16.6694 5.77507 17.1202 4.09458 17.5096C4.32902 16.7226 4.48965 15.9154 4.57437 15.0986Z" fill="#FFC500" stroke="#FFC500" stroke-width="0.5"/>
</svg>
