<svg width="75" height="71" viewBox="0 0 75 71" fill="none" xmlns="http://www.w3.org/2000/svg">
<g clip-path="url(#clip0_1177_310)">
<path d="M58.3334 59.1663H12.5V15.7775H40.0417L44.2084 11.833H12.5C11.395 11.833 10.3352 12.2486 9.55376 12.9883C8.77236 13.728 8.33337 14.7313 8.33337 15.7775V59.1663C8.33337 60.2125 8.77236 61.2158 9.55376 61.9555C10.3352 62.6952 11.395 63.1108 12.5 63.1108H58.3334C59.4384 63.1108 60.4983 62.6952 61.2797 61.9555C62.0611 61.2158 62.5 60.2125 62.5 59.1663V29.583L58.3334 33.5275V59.1663Z" fill="#FFC502"/>
<path d="M69.8541 11.518L62.8333 4.87157C62.5217 4.5758 62.1515 4.34113 61.744 4.18101C61.3364 4.0209 60.8995 3.93848 60.4583 3.93848C60.017 3.93848 59.5801 4.0209 59.1726 4.18101C58.765 4.34113 58.3949 4.5758 58.0833 4.87157L29.5208 32.0685L27.2083 41.5549C27.1098 42.0147 27.1201 42.4895 27.2386 42.9451C27.3571 43.4007 27.5808 43.8258 27.8935 44.1898C28.2063 44.5538 28.6004 44.8476 29.0475 45.0502C29.4946 45.2528 29.9835 45.359 30.4791 45.3613C30.7353 45.388 30.9938 45.388 31.25 45.3613L41.3541 43.251L69.8541 16.0146C70.1666 15.7197 70.4144 15.3692 70.5836 14.9834C70.7527 14.5976 70.8398 14.184 70.8398 13.7663C70.8398 13.3486 70.7527 12.935 70.5836 12.5492C70.4144 12.1633 70.1666 11.8129 69.8541 11.518V11.518ZM39.1875 39.6024L31.5625 41.1999L33.3333 34.0407L54.8333 13.5493L60.7083 19.111L39.1875 39.6024ZM63.0625 16.8824L57.1875 11.3207L60.4166 8.20463L66.3333 13.8057L63.0625 16.8824Z" fill="#FFC502"/>
</g>
<defs>
<clipPath id="clip0_1177_310">
<rect width="75" height="71" fill="white"/>
</clipPath>
</defs>
</svg>
