<svg width="23" height="17" viewBox="0 0 23 17" fill="none" xmlns="http://www.w3.org/2000/svg">
<path d="M15.6818 16.7273C15.9591 16.7273 16.225 16.6171 16.4211 16.4211C16.6171 16.225 16.7273 15.9591 16.7273 15.6818V11.2909L22.1772 15.1068C22.2556 15.1618 22.3475 15.1941 22.443 15.2004C22.5385 15.2067 22.6339 15.1866 22.7188 15.1424C22.8037 15.0982 22.8748 15.0315 22.9244 14.9497C22.9739 14.8678 23.0001 14.7739 23 14.6782V2.04911C23.0001 1.95341 22.9739 1.85951 22.9244 1.77766C22.8748 1.69581 22.8037 1.62914 22.7188 1.58492C22.6339 1.54071 22.5385 1.52064 22.443 1.52691C22.3475 1.53318 22.2556 1.56554 22.1772 1.62047L16.7273 5.43639V1.04548C16.7273 0.768204 16.6171 0.502287 16.4211 0.306227C16.225 0.110167 15.9591 2.09808e-05 15.6818 2.09808e-05H1.04545C0.768183 2.09808e-05 0.502267 0.110167 0.306206 0.306227C0.110146 0.502287 0 0.768204 0 1.04548V15.6818C0 15.9591 0.110146 16.225 0.306206 16.4211C0.502267 16.6171 0.768183 16.7273 1.04545 16.7273H15.6818ZM14.6364 14.6364H2.09091V2.09093H14.6364V14.6364ZM6.69091 11.6788C6.77047 11.679 6.84845 11.6565 6.91568 11.614L11.4686 8.71598C11.5278 8.67816 11.5764 8.62607 11.6102 8.5645C11.6439 8.50292 11.6615 8.43386 11.6615 8.36366C11.6615 8.29346 11.6439 8.22439 11.6102 8.16282C11.5764 8.10125 11.5278 8.04916 11.4686 8.01134L6.91568 5.11229C6.85227 5.07187 6.77913 5.0493 6.70396 5.04695C6.62879 5.0446 6.55439 5.06256 6.48857 5.09895C6.42276 5.13533 6.36797 5.18879 6.32999 5.2537C6.292 5.3186 6.27222 5.39255 6.27273 5.46775V11.2596C6.27273 11.3705 6.31679 11.4768 6.39521 11.5553C6.47363 11.6337 6.58 11.6777 6.69091 11.6777V11.6788ZM20.9091 11.6673L16.7273 8.74002V7.98939L20.9091 5.06211V11.6673Z" fill="#FFC500" fill-opacity="0.93"/>
</svg>
