<svg width="21" height="22" viewBox="0 0 21 22" fill="none" xmlns="http://www.w3.org/2000/svg">
<path d="M20.3149 11.5806C20.7559 10.988 21 10.2619 21 9.50638C21 8.30774 20.3411 7.17317 19.2806 6.54048C19.0076 6.37762 18.6968 6.29191 18.3802 6.29221H12.0855L12.243 3.0113C12.2798 2.21844 12.0041 1.46562 11.4686 0.891658C11.2058 0.608758 10.8888 0.383673 10.5371 0.230311C10.1853 0.0769502 9.80643 -0.00142826 9.42375 1.97019e-05C8.05875 1.97019e-05 6.85125 0.934372 6.489 2.27183L4.23412 10.5742H0.84C0.375375 10.5742 0 10.956 0 11.4285V21.1457C0 21.6182 0.375375 22 0.84 22H16.6241C16.8656 22 17.1019 21.9519 17.3197 21.8558C18.5692 21.3139 19.3751 20.0726 19.3751 18.6951C19.3751 18.3587 19.3279 18.0277 19.2334 17.7073C19.6744 17.1147 19.9185 16.3885 19.9185 15.6331C19.9185 15.2967 19.8713 14.9657 19.7768 14.6453C20.2177 14.0527 20.4619 13.3265 20.4619 12.5711C20.4566 12.2347 20.4094 11.901 20.3149 11.5806V11.5806ZM1.89 20.0779V12.4963H4.01625V20.0779H1.89ZM18.5955 10.6543L18.0206 11.1615L18.3855 11.8396C18.5057 12.063 18.568 12.3138 18.5666 12.5684C18.5666 13.0089 18.3776 13.428 18.0521 13.7163L17.4772 14.2235L17.8421 14.9016C17.9623 15.125 18.0247 15.3758 18.0232 15.6304C18.0232 16.0709 17.8342 16.49 17.5087 16.7783L16.9339 17.2855L17.2987 17.9636C17.419 18.187 17.4813 18.4378 17.4799 18.6924C17.4799 19.2904 17.1334 19.8296 16.5979 20.0752H5.69625V12.4109L8.30812 2.78706C8.37547 2.54039 8.52005 2.32277 8.71994 2.16717C8.91984 2.01158 9.16415 1.92648 9.41588 1.92478C9.61538 1.92478 9.81225 1.98352 9.96975 2.10365C10.2296 2.30119 10.3687 2.60019 10.353 2.91787L10.101 8.21431H18.354C18.8212 8.50529 19.11 8.99649 19.11 9.50638C19.11 9.94686 18.921 10.3633 18.5955 10.6543Z" fill="#FFC502"/>
</svg>
