<svg width="21" height="20" viewBox="0 0 15 17" fill="none" xmlns="http://www.w3.org/2000/svg">
<path d="M4.53125 6.718H8.39063C8.94178 6.718 9.47036 6.93695 9.86008 7.32667C10.2498 7.7164 10.4688 8.24498 10.4688 8.79613C10.4688 9.34728 10.2498 9.87586 9.86008 10.2656C9.47036 10.6553 8.94178 10.8743 8.39063 10.8743H7.5M4.53125 6.718L6.3125 4.93675M4.53125 6.718L6.3125 8.49925M13.4375 2.76521V16.218L10.4688 15.0305L7.5 16.218L4.53125 15.0305L1.5625 16.218V2.76521C1.5625 1.88804 2.20058 1.13675 3.07221 1.03542C6.01419 0.693923 8.98581 0.693923 11.9278 1.03542C12.7986 1.13675 13.4375 1.88804 13.4375 2.76521Z" stroke="#FFC502" stroke-width="1.1875" stroke-linecap="round" stroke-linejoin="round"/>
</svg>